<?xml version="1.0" encoding="utf-8"?>
<svg width="206px" height="163px" viewBox="0 0 206 163" version="1.1" xmlns:xlink="http://www.w3.org/1999/xlink" xmlns="http://www.w3.org/2000/svg">
  <g id="Group-27" transform="translate(2.5 2.5)">
    <path d="M78.5 0C35.1456 0 0 35.1456 0 78.5C0 121.854 35.1456 157 78.5 157C121.854 157 157 121.854 157 78.5C157 35.1456 121.854 0 78.5 0ZM78.5 0C109.661 0 134.922 35.1456 134.922 78.5C134.922 121.854 109.661 157 78.5 157C47.3391 157 22.0781 121.854 22.0781 78.5C22.0781 35.1456 47.3391 0 78.5 0Z" transform="translate(44 0.0009765625)" id="Ellipse-Xor-Copy-3" fill="#0044AA" fill-rule="evenodd" stroke="none" />
    <path d="M78.5 0C35.1456 0 0 35.1456 0 78.5C0 121.854 35.1456 157 78.5 157C121.854 157 157 121.854 157 78.5C157 35.1456 121.854 0 78.5 0ZM78.5 0C109.661 0 134.922 35.1456 134.922 78.5C134.922 121.854 109.661 157 78.5 157C47.3391 157 22.0781 121.854 22.0781 78.5C22.0781 35.1456 47.3391 0 78.5 0Z" transform="translate(22 0)" id="Ellipse-Xor-Copy-4" fill="#0057D9" fill-rule="evenodd" stroke="none" />
    <path d="M78.5 0C35.1456 0 0 35.1456 0 78.5C0 121.854 35.1456 157 78.5 157C121.854 157 157 121.854 157 78.5C157 35.1456 121.854 0 78.5 0ZM78.5 0C109.661 0 134.922 35.1456 134.922 78.5C134.922 121.854 109.661 157 78.5 157C47.3391 157 22.0781 121.854 22.0781 78.5C22.0781 35.1456 47.3391 0 78.5 0Z" id="Ellipse-Xor-Copy-5" fill="#0066FF" fill-rule="evenodd" stroke="none" />
    <path d="M0 21C0 9.40202 9.40202 0 21 0C32.598 0 42 9.40202 42 21C42 32.598 32.598 42 21 42C9.40202 42 0 32.598 0 21Z" transform="translate(78 57)" id="Ellipse-6" fill="none" fill-rule="evenodd" stroke="#0057D9" stroke-width="5" />
  </g>
</svg>